<svg id="Layer_1" data-name="Layer 1" xmlns="http://www.w3.org/2000/svg" viewBox="0 0 373.12 357.49"><defs><style>.cls-1{fill:#fff;stroke:#000;}</style></defs><title>logo</title><path class="cls-1" d="M121,228.2c-4.83,3.5-8.5,7.71-10.23,13.53-.7,2.34-.43,3.9,1.57,5.5,4.39,3.51,8.55,7.31,12.86,10.92,8.36,7,14,15.88,17.84,26,1.44,3.73,2.85,7.47,4.51,11.1a33.81,33.81,0,0,0,3,4.65c.62-4.52.51-9.28,2.06-13.42,1.7-4.53,6.16-6.57,11.48-7.57-1.42,7.17-3.91,13.24-9.09,18.34-1.74-4.87-1.61-5.4,2-13.08-1.37,2-3.61,3.84-3.92,6-.86,5.88.09,11.85,5.1,15.62,6.57,4.94,13.7,9.14,20.62,13.61a5.76,5.76,0,0,0,2.41.94c8.65,1,17.31,1.9,26.33,2.88C204.53,312.61,197.7,305.58,188,301c10.48,3.22,17.79,10,21.69,20.21a9.23,9.23,0,0,0,5,5.35,144,144,0,0,1,14.79,8.79c4,2.71,8.32,2.45,13.13,3-9.07-10.19-9.72-17.54-2.54-24.27,3.36,5,4.87,13.47,3.42,19.2-4.13-1.79-4.84-3.63-5.61-12.31,0,2.77-.95,6,.19,8.21,2.86,5.45,7.32,9.81,14,9.68,9.6-.19,19.31-.23,28.74-1.78,5.38-.88,10.34-4.52,15.36-7.18.75-.4.84-2.2,1.08-3.39a44.07,44.07,0,0,1,2.47-9.28V327c9.11-1.26,18.17-2.08,27-3.92,4.31-.9,8.22-3.72,13.17-6.07-13.58-2.41-18.68-8.3-16.75-18.22,5.19,1.64,11.4,7.77,13.92,13.84-6.15.93-8.34-3.87-11.32-7.83,1.77,8.29,13,12.88,20.26,7.83,8.17-5.69,15.71-12.3,23.45-18.61a7.67,7.67,0,0,0,1.87-3.15c3.68-9.57,7.18-19.21,14.47-26.85.61-.63.61-2.33.25-3.31a29.62,29.62,0,0,0-12.93-15.51,14.93,14.93,0,0,1-2.9-2.06c8.83,2.89,14.72,9.09,19,17.77,5.22-6.12,13-9.18,15.24-16.62-4.25.68-8.78,2.22-13.16,1.89-4.74-.36-8.19-3.8-10.45-8.78a32.8,32.8,0,0,1,19.84,3.23c-3.34,3.2-4,3.25-13.06,1.07,3.3,3,6.31,3.71,10.29,2.17,5.64-2.16,10-5.57,11.43-11.84a7.7,7.7,0,0,1,.4-1c4.39-10.92,6.42-21.9,1.8-33.39-1.28-3.19-1.56-6.8-2.17-10.24a28.26,28.26,0,0,1,4.59-21.78c2.45-3.54,3.3-7.06,2.07-11.23-.83-2.82-1.2-5.77-1.68-8.15-3.08,3.15-5.74,7-9.38,9.31-4,2.57-8.89,1.82-13.66-.66,5.15-4.89,10.75-8.22,17.67-9.36-.46,4.53-1.67,5.57-9.8,8.57,3.86.67,7.17-.52,9.14-3.57a38.52,38.52,0,0,0,2.91-5.64c1.5-3.43,1.21-6.05-2.31-8.6-5.17-3.75-9.81-8.23-10.5-15.28a5.49,5.49,0,0,0-1.5-2.52,55.41,55.41,0,0,1-13-31.72c-.18-2.1-.65-3.39-2.86-4.08-8-2.5-12.69-7.86-14.19-16.25-.36-2-2.31-3.81-3.4-5.52-.68,4.81-.56,9.57-2.13,13.68-1.72,4.47-6.08,6.6-11.37,7.45,1.29-7.21,3.94-13.11,9-18.32,2.52,5.68-.58,9.39-3.12,13.3,3.33-2.3,5.71-5,5.28-9.57-.6-6.35-3-11.45-8.69-14.86-2.07-1.24-4.9-2.29-4.37-6.26,5.92,4.5,11.57,8.77,18.22,13.81-1.77-5.43-3.2-9.84-4.63-14.24l.69-.38c1.54,3.45,3.69,6.76,4.48,10.37,1.09,5,3.25,9.05,7.25,12.17a5,5,0,0,1,.79.8c5.44,7,11.78,12.36,20.83,14.62,6.11,1.52,7.56,4.16,10.74,11.69,6.82-1.61,13.52-1.67,19.64,2.54-3.28,7.4-9.19,9.34-19.59,6.48-3.33,6.24.33,11.41,2.44,16.89s3.34,11.4,11.64,12.43l-2.93,1.06a2,2,0,0,0,.24.36c12.05,11.1,12.73,16.1,4.72,30.6a19.63,19.63,0,0,0-2.07,8c-.31,5.31-.09,10.64-.09,16.85,5.09-6.82,10.57-11.81,18.18-13.88a38.15,38.15,0,0,0-15.69,14.42c-1.58,2.69-2,5.12-.55,8,2.86,5.8,5.57,11.6,13.37,12.13-4.64-2.9-9.94-5.32-9.36-12.16,7,.31,14.49,6.77,16.46,14.19-4.59,2.08-9.52,2.51-13.41-.59-3.56-2.85-6-7.07-9-10.66.76,4,1.58,8.23,2.38,12.47,2.63,14-1.2,26-12.11,35a87.37,87.37,0,0,0-19.26,22.57,65.23,65.23,0,0,1-6.71,9c-5.1,5.85-6.77,12.79-6.26,20.2.19,2.74,2,5.38,3.83,7.9-1.7-5.18-4.11-10.2.2-15.21,5.39,4.5,7.56,13.54,5.14,21-9.51-.95-12.32-7.34-11.16-24.59a47.59,47.59,0,0,0-2.84,4.39c-1.93,3.77-3.63,7.67-5.59,11.43-5.92,11.37-15.59,17.38-28.1,18.55a71.35,71.35,0,0,0-23,5.79,105.13,105.13,0,0,1-16.69,5.48A26.83,26.83,0,0,0,284,348.5c-1.47,2.42-1.45,5.74-1.49,8.86,1.61-5.24,2.45-10.8,9.53-12.59.43,8.37-2.22,14.91-8.2,20.16-7.92-5.61-6.22-13.82,5-26.41-1.1.63-2.18,1.28-3.28,1.9-5,2.81-9.86,5.93-15,8.37-9.08,4.27-18.39,4.08-27.6.19-2.87-1.21-5.94-2.25-8.41-4.07-11.43-8.42-25.45-9.89-38.32-14.32-8.33-2.87-19,1.25-22.68,7.34-.24.4-.39.86-1,2.23,4.8-4.29,8.58-9,15.11-6.25-2.41,6.45-10.6,11.73-18.36,11.65-.82-4.4,0-8.68,3.24-11.57,2.9-2.6,6.84-4,10-5.81-3.84-.55-8.31-1.1-12.75-1.84-10.91-1.82-19.1-7.65-24.68-17.13a43.85,43.85,0,0,1-4.27-8.31c-3.43-10.48-10.54-18.42-17.12-26.89-3.83-4.95-6.87-10.31-12.82-13.06-4.57-2.11-9.12-4.31-14.29-1.95a3.94,3.94,0,0,0-1.45,1.14c5.38-.37,10.9-1.44,14.42,4.26-6.09,3.83-15.44,3.25-21.56-1.24,3.32-7.81,9.58-9.33,22.19-5.69-1.56-1.4-3.14-2.77-4.68-4.18-7.42-6.76-13.86-14.19-15.25-24.61a48.13,48.13,0,0,1-.12-10.46c.3-3.41.44-6.88,1.77-10.18,3.65-9.06,1.48-18.49,1.46-27.78,0-4.37-3.53-6.26-6.53-8.75l7.08,2.6c-.57-2.87-.73-5.38-1.58-7.63-1.45-3.84-3.39-7.49-5-11.27s-4.8-4.63-8.43-5.1c4.42,2.87,9.19,5.41,8.66,11.81-6.45.11-13.83-6-16.46-13.54,4-2.88,8.58-2.74,15.06.7,1.3-9.08,8.11-13.86,14.47-19.06a8.75,8.75,0,0,0,2.13-3.37c2.42-5.6,4.79-11.23,7.06-16.9a9.37,9.37,0,0,0,.44-3.59c-.06-4-.44-8-.3-12A14.23,14.23,0,0,1,118.9,81a57.71,57.71,0,0,1,9.83-3.55,5.88,5.88,0,0,0,4.8-4.54c1.86-6.64,4.14-13.28-.77-19.65-.37-.49-.69-1-1.57-2.33,2.46,12.87,2.46,12.87.37,16.16-5.28-3.4-7.76-13.11-5.33-20.89,7.87,1.62,14.46,5.65,10.43,25.29,5.76-7.08,13.81-10.88,15.63-20.21.73-3.75,3.65-7.06,6.23-10.18l-6.47,14.7c5-1.51,7.08-6.6,12.19-5.28-3.39,2.64-6.89,5.16-10.11,8A9.24,9.24,0,0,0,151.21,63c-2,8.48-7.15,13.88-15.34,16.35a12.83,12.83,0,0,0-7.26,5.43c-3.38,5-6.89,9.92-10.05,15.16a70.39,70.39,0,0,1,30.88-10.4c-4.53,1.38-9.21,2.39-13.54,4.22-4.91,2.08-9.48,5-14.24,7.37-5.77,2.94-5.87,7.62-4.14,13.05,6.94-.28,12.18,2.54,16.07,10l-16.17-1.43-15.2,16.13,6.83-3.29.32.58c-.84.51-1.7,1-2.54,1.53-4.06,2.57-6.82,5.86-7.81,10.85-1.23,6.26-1.8,11.88,2.34,17.65,6.76,9.42,4.74,20,2.42,30.36-1.25,5.6-2.58,11.19-3.83,16.79a4.22,4.22,0,0,0,.2,2.25c2.64-5.29,5.47-10.47,11.95-11.16,3.29-.35,6.7.4,10.13,1.31-4.81,5.29-10.25,8.75-17.29,9.69.87-4.63,1.22-4.91,10.21-8.66-4.39-.56-7.67.83-9.85,4.32-2.79,4.47-4.46,9.05-2.41,14.49,1.83,4.84,3.1,9.91,4.88,15.75C111.06,234.73,114.82,230.16,121,228.2ZM239.5,341c9.25,8.34,27.08,8.32,37.46,0Zm97.16-18.74c13.11.84,28.89-10.38,30.21-21.28Zm61.77-205.17c.42-5.69,2.46-10.13-1.07-14.73-3.37-4.39-6-9.31-9-14C388.35,98.89,391.71,108,398.43,117.06Zm-272-33.79c-8.49,1.38-12.53,7.3-10.47,15.39C119.44,93.49,122.89,88.43,126.39,83.27Zm263.38,3.09c3.75,4.48,5.41,10,11,12C401.9,92.82,397.42,87.84,389.77,86.36ZM172.38,318.94,152,304.53C156.55,312.85,162.94,317.27,172.38,318.94ZM408.66,241.8c5.69-5.86,8.67-12.57,7.46-21.69ZM299.93,331.93c.14.51.28,1,.43,1.53l17.26-5.7-.31-1C311.26,327.66,305.2,328.51,299.93,331.93Zm78.46-48.7,1,.71c2.79-4.67,8.13-7.72,8.91-13.67l-1.2-.77Zm40.67-127c2.63-6,2-8.79-2.48-12.59C417.39,147.72,418.12,151.45,419.06,156.2ZM137.86,73.51c5.06-.89,8.08-3.82,9.71-9.46Zm280.93,27.6-12-.81C407.45,103.6,414.27,104.16,418.79,101.11ZM417.24,188l.72,0V176.07h-.72ZM377.82,77.85l1.25-1.06-7.39-7.86-1.12,1Zm-281.63,110h.55V175.47h-.55Zm6.12,48.66,1.16-.38-4.19-11.61-.76.24Q100.41,230.67,102.31,236.54Z" transform="translate(-70.52 -8.07)"/><g id="Small_Rose" data-name="Small Rose"><path class="cls-1" d="M194.19,46c-6.39-5.06-14-5.16-21-7l0-1.12c2.49-.33,5.17-1.4,7.43-.83,4.64,1.17,9.44,2.59,13.48,5.05,8.64,5.24,17,10.88,27.09,13.1,2.77.61,3.16,3.95,1,7-3.08,4.4-10.78,7.11-16.56,4.65a59,59,0,0,1-14.83-9.06c-4.94-4.19-8.94-9.49-13.34-14.31l.93-1.4Z" transform="translate(-70.52 -8.07)"/><path class="cls-1" d="M225.41,37.91c-2.26-3.27-1.24-6.09.16-8.8,2.28-4.39,2.53-8.54-.8-13.22l8.26,2c-4.84-4.15-9.54-6-15.42-3.37-1.91.87-4.29.71-6.83,1.07.29-3.43,2.13-4.76,4.51-5.29,7.34-1.64,14.46-.2,21.15,2.66,3.46,1.48,4,5.23,3.33,8.77A14.53,14.53,0,0,1,238,26.21c-4,6.72-8.06,13.38-12.28,20.36a28.46,28.46,0,0,1,6.19-16.13c1.81-2.39,3-4.79,1.35-7.83Z" transform="translate(-70.52 -8.07)"/><path class="cls-1" d="M249.24,44.3,226.72,59.42a13.22,13.22,0,0,0-.38-3.13,16.88,16.88,0,0,0-1.72-2.85c2.83-5.12,5.68-10.38,8.63-15.59,2-3.47,3.78-4.11,6.93-1.75A120.52,120.52,0,0,1,249.24,44.3Z" transform="translate(-70.52 -8.07)"/><path class="cls-1" d="M189.3,36.49c-2.83-.44-5.16-.78-7.47-1.17-4.18-.72-6.29-4.74-3.68-8a142.66,142.66,0,0,1,13.77-15.19,12.57,12.57,0,0,1,14-2.44c1,.43,1.68,1.76,2.51,2.68-1.18.51-2.43,1.58-3.52,1.44-5.18-.65-8,1.79-9.47,6.43-.79,2.43-2.29,3.55-5.15,2.84-3.32-.82-4.65.73-3.78,4.12C187.22,30.18,188.25,33.11,189.3,36.49Z" transform="translate(-70.52 -8.07)"/><path class="cls-1" d="M194.57,39.68c-1.11-1.28-2.57-2.4-3.25-3.88A37.42,37.42,0,0,1,188.76,28c-.6-2.83,1.09-4.16,3.65-2.81,8.74,4.6,17.41,4.55,26.86-.48-3.33,9.5-11.45,13.56-17.21,19.9-3-2.18-6.36-3.41-5-8.19.45-1.56-1.37-3.76-2.15-5.67l-.91.35c.62,2.62,1.24,5.25,1.87,7.87Zm18-8.1c-3.11,0-6.24.37-9.24-.1s-5.83-1.78-8.74-2.73C200.52,35.6,208.23,36.83,212.53,31.58Z" transform="translate(-70.52 -8.07)"/><path class="cls-1" d="M203.64,69.25c-2.85.85-4.87,1.44-6.89,2.06A6.85,6.85,0,0,1,189,69.12a39.68,39.68,0,0,0-17.65-12.65c-4.26-1.58-4.22-3.4-.31-6,.93-.62,2-1.08,2.94-1.62,2.73-1.51,4.55-1.09,6.31,1.85,4.76,7.95,11.81,13.37,20.24,17.06C201.26,68.1,202,68.48,203.64,69.25Z" transform="translate(-70.52 -8.07)"/><path class="cls-1" d="M205.14,47.57c4.54-6.4,11.58-7.7,17-11.42,3.06,3.8,2.8,12.27-.69,15.17a5.89,5.89,0,0,1-4.75,1.08C212.86,51.17,209.22,49.33,205.14,47.57Z" transform="translate(-70.52 -8.07)"/><path class="cls-1" d="M204.58,44.6a28.88,28.88,0,0,1,2.68-3.18c2.66-2.45,5.49-4.72,8.15-7.17,4.5-4.14,7-9,4.75-15.32,3.78,0,5.09,1.34,4.72,4.68a17.66,17.66,0,0,1-9.51,14.33C211.63,40,208.09,42.41,204.58,44.6Z" transform="translate(-70.52 -8.07)"/><path class="cls-1" d="M217.75,18.63l1.59,4.4-4.79,2.24c-.63-1.16-1-2.93-1.78-3.07-1.27-.25-2.74.5-4.59.94L211.85,25c-.49.6-1.07,1.75-1.47,1.7a20.66,20.66,0,0,1-5.84-1.5c-.38-.18-.3-3.05.33-3.44a26,26,0,0,1,7.06-3C213.68,18.26,215.64,18.63,217.75,18.63Z" transform="translate(-70.52 -8.07)"/><path class="cls-1" d="M203.44,27.11c-2.95-.86-4.86-1.38-6.74-2-.28-.09-.47-.48-1.09-1.14l2.89-.3c0-1.68-.55-3.54.11-4.72,1.53-2.72,5.32-3.2,9.82-1.53C204.74,19.49,200,20.83,203.44,27.11Z" transform="translate(-70.52 -8.07)"/><path class="cls-1" d="M212.53,31.58c-4.3,5.25-12,4-18-2.83,2.91.95,5.76,2.26,8.74,2.73S209.42,31.58,212.53,31.58Z" transform="translate(-70.52 -8.07)"/></g><g id="Small_Rose-2" data-name="Small Rose"><path class="cls-1" d="M318.49,46.89c6.39-5.07,14-5.17,21-7l0-1.12c-2.49-.33-5.17-1.4-7.43-.83-4.64,1.17-9.44,2.59-13.48,5.05-8.65,5.25-17,10.88-27.1,13.1-2.76.61-3.15,3.95-1,7,3.07,4.4,10.78,7.11,16.56,4.65a58.84,58.84,0,0,0,14.83-9.06c4.94-4.19,8.93-9.49,13.34-14.31l-.93-1.4Z" transform="translate(-70.52 -8.07)"/><path class="cls-1" d="M287.26,38.84c2.27-3.27,1.25-6.09-.16-8.8-2.28-4.39-2.53-8.54.81-13.22l-8.27,2c4.84-4.15,9.54-6,15.42-3.37,1.92.87,4.3.71,6.84,1.07-.29-3.43-2.14-4.76-4.51-5.29-7.34-1.64-14.46-.2-21.15,2.66-3.46,1.48-4,5.23-3.33,8.78a14.57,14.57,0,0,0,1.75,4.5c4,6.72,8,13.38,12.28,20.36a28.4,28.4,0,0,0-6.2-16.13c-1.81-2.39-3-4.79-1.34-7.83Z" transform="translate(-70.52 -8.07)"/><path class="cls-1" d="M263.44,45.23,286,60.36a13.78,13.78,0,0,1,.38-3.14,16.94,16.94,0,0,1,1.73-2.85c-2.83-5.12-5.69-10.38-8.63-15.59-2-3.47-3.78-4.11-6.94-1.75C269.18,39.52,266.31,42.59,263.44,45.23Z" transform="translate(-70.52 -8.07)"/><path class="cls-1" d="M323.38,37.42c2.83-.44,5.15-.78,7.46-1.17,4.19-.72,6.3-4.74,3.69-8a141.59,141.59,0,0,0-13.77-15.18,12.55,12.55,0,0,0-13.95-2.45c-1,.43-1.68,1.76-2.51,2.68,1.18.51,2.42,1.58,3.52,1.44,5.17-.65,7.95,1.79,9.47,6.43.79,2.43,2.29,3.55,5.15,2.85,3.32-.82,4.65.72,3.78,4.11C325.45,31.11,324.42,34,323.38,37.42Z" transform="translate(-70.52 -8.07)"/><path class="cls-1" d="M316.8,39.91c.62-2.62,1.24-5.25,1.87-7.87l-.92-.35c-.78,1.91-2.59,4.11-2.14,5.67,1.37,4.78-2,6-5,8.19-5.77-6.34-13.89-10.4-17.21-19.9,9.45,5,18.12,5.08,26.86.48,2.55-1.35,4.25,0,3.65,2.81a37.42,37.42,0,0,1-2.56,7.79c-.69,1.48-2.14,2.6-3.25,3.88Zm1.32-10.23c-2.9.95-5.75,2.26-8.73,2.73s-6.13.1-9.24.1C304.45,37.76,312.16,36.53,318.12,29.68Z" transform="translate(-70.52 -8.07)"/><path class="cls-1" d="M309,70.18c2.85.85,4.87,1.44,6.89,2.06a6.84,6.84,0,0,0,7.78-2.19A39.71,39.71,0,0,1,341.37,57.4c4.26-1.58,4.21-3.4.31-6-.93-.62-2-1.08-2.94-1.62-2.74-1.51-4.55-1.09-6.31,1.85C327.67,59.58,320.62,65,312.19,68.7,311.42,69,310.66,69.41,309,70.18Z" transform="translate(-70.52 -8.07)"/><path class="cls-1" d="M307.54,48.5c-4.55-6.4-11.58-7.7-17-11.42-3,3.8-2.79,12.27.69,15.17A5.9,5.9,0,0,0,296,53.33C299.81,52.1,303.46,50.26,307.54,48.5Z" transform="translate(-70.52 -8.07)"/><path class="cls-1" d="M308.1,45.53a29.84,29.84,0,0,0-2.68-3.18c-2.66-2.45-5.49-4.72-8.15-7.17-4.51-4.14-7-9-4.75-15.32-3.78,0-5.1,1.34-4.72,4.69a17.64,17.64,0,0,0,9.51,14.32C301.05,40.93,304.59,43.34,308.1,45.53Z" transform="translate(-70.52 -8.07)"/><path class="cls-1" d="M294.93,19.56,293.34,24l4.79,2.24c.63-1.16,1-2.93,1.78-3.07,1.27-.25,2.74.5,4.58.94l-3.67,1.84c.5.6,1.07,1.75,1.48,1.7a20.6,20.6,0,0,0,5.83-1.5c.39-.18.31-3.05-.32-3.44a26,26,0,0,0-7.06-3C299,19.19,297,19.56,294.93,19.56Z" transform="translate(-70.52 -8.07)"/><path class="cls-1" d="M309.24,28c2.95-.85,4.85-1.38,6.74-2,.28-.09.47-.47,1.09-1.14l-2.9-.3c0-1.68.55-3.54-.11-4.72-1.52-2.72-5.31-3.2-9.82-1.53C307.94,20.42,312.68,21.76,309.24,28Z" transform="translate(-70.52 -8.07)"/><path class="cls-1" d="M300.15,32.51c4.3,5.25,12,4,18-2.83-2.9.95-5.75,2.26-8.73,2.73S303.26,32.51,300.15,32.51Z" transform="translate(-70.52 -8.07)"/></g></svg>