<?xml version="1.0" encoding="utf-8"?>
<!-- Generator: Adobe Illustrator 23.0.1, SVG Export Plug-In . SVG Version: 6.00 Build 0)  -->
<svg version="1.1" id="Layer_1" xmlns="http://www.w3.org/2000/svg" xmlns:xlink="http://www.w3.org/1999/xlink" x="0px" y="0px"
	 viewBox="0 0 10 10" style="enable-background:new 0 0 10 10;" xml:space="preserve">
<style type="text/css">
	.st0{fill:#E4FF22;}
</style>
<title>Asset 5</title>
<g>
	<g id="Layer_1-2">
		<path class="st0" d="M5,0.6l1.3,2.7c0,0.1,0.1,0.1,0.2,0.1l2.8,0.4c0.1,0,0.2,0.1,0.2,0.2c0,0,0,0.1-0.1,0.1l-2,2.1
			c0,0-0.1,0.1-0.1,0.2l0.5,2.9c0,0.1-0.1,0.2-0.2,0.2c0,0-0.1,0-0.1,0L4.9,8.2c-0.1,0-0.1,0-0.2,0L2.2,9.5C2.1,9.6,2,9.6,2,9.4
			c0,0,0-0.1,0-0.1l0.5-2.9c0-0.1,0-0.1-0.1-0.2l-2-2.1C0.2,4,0.2,3.9,0.3,3.8c0,0,0.1-0.1,0.1-0.1l2.8-0.4c0.1,0,0.1-0.1,0.2-0.1
			l1.3-2.7C4.7,0.5,4.8,0.4,5,0.6C5,0.5,5,0.5,5,0.6z"/>
	</g>
</g>
</svg>
